<svg width="1440" height="1024" viewBox="0 0 1440 1024" fill="none" xmlns="http://www.w3.org/2000/svg">
<path opacity="0.3" fill-rule="evenodd" clip-rule="evenodd" d="M1440 0H0V1024H1440V0ZM876.231 190.393L1265.97 962.87C1267.76 965.889 1268.96 969.28 1269.5 972.83C1270.03 976.38 1269.89 980.011 1269.08 983.498C1267.05 989.112 1261.42 991.853 1251.97 991.853H1102.51C1096.97 992.459 1091.4 991.177 1086.56 988.185C1081.71 985.192 1077.84 980.636 1075.47 975.142L730.484 284.13C729.33 281.449 727.504 279.18 725.217 277.586C722.929 275.992 720.275 275.137 717.561 275.121H710.5C707.769 275.128 705.095 275.977 702.787 277.571C700.479 279.165 698.631 281.439 697.457 284.13L357.26 975.142C354.732 980.497 350.827 984.931 346.023 987.9C341.219 990.868 335.726 992.242 330.216 991.853H177.17C166.879 991.853 160.896 989.112 158.862 983.498C157.963 979.942 157.764 976.219 158.28 972.573C158.796 968.928 160.014 965.443 161.853 962.348L548 190.393C567.625 151.402 586.85 125.291 605.677 112.062C625.379 98.4799 648.311 91.532 671.61 92.087H741.014C767.341 91.1331 793.407 98.04 816.401 112.062C836.663 125.726 856.607 151.837 876.231 190.393Z" fill="black"/>
</svg>
