<svg width="596" height="400" viewBox="0 0 596 400" fill="none" xmlns="http://www.w3.org/2000/svg">
<path d="M560.8 215.869C551.642 221.171 540.358 221.171 531.2 215.869L360.8 117.245C351.641 111.946 345.999 102.148 346 91.5469L346 -105.702C345.999 -116.303 351.641 -126.1 360.8 -131.4L531.2 -230.024C540.358 -235.326 551.642 -235.326 560.8 -230.024L731.2 -131.4C740.359 -126.1 746.001 -116.303 746 -105.702L746 91.5469C746.001 102.148 740.359 111.946 731.2 117.245L560.8 215.869Z" fill="url(#paint0_linear)"/>
<path d="M425.75 119.031C420.645 116.084 414.355 116.084 409.25 119.031L333.75 162.621C328.645 165.568 325.5 171.015 325.5 176.91V264.09C325.5 269.985 328.645 275.432 333.75 278.379L409.25 321.969C414.355 324.916 420.645 324.916 425.75 321.969L501.25 278.379C506.355 275.432 509.5 269.985 509.5 264.09V176.91C509.5 171.015 506.355 165.568 501.25 162.621L425.75 119.031Z" stroke="#A652FF" stroke-width="3"/>
<g opacity="0.3">
<path d="M216.5 119.464C211.55 116.606 205.45 116.606 200.5 119.464L125 163.054C120.05 165.912 117 171.194 117 176.91V264.09C117 269.806 120.05 275.088 125 277.946L200.5 321.536C205.45 324.394 211.55 324.394 216.5 321.536L292 277.946C296.95 275.088 300 269.806 300 264.09V176.91C300 171.194 296.95 165.912 292 163.054L216.5 119.464Z" stroke="#B969FF" stroke-width="2"/>
</g>
<g opacity="0.3">
<path d="M112.5 298.464C107.55 295.606 101.45 295.606 96.5 298.464L21.0003 342.054C16.0499 344.912 13.0003 350.194 13.0003 355.91V443.09C13.0003 448.806 16.0499 454.088 21.0003 456.946L96.5 500.536C101.45 503.394 107.55 503.394 112.5 500.536L188 456.946C192.95 454.088 196 448.806 196 443.09V355.91C196 350.194 192.95 344.912 188 342.054L112.5 298.464Z" stroke="#B969FF" stroke-width="2"/>
</g>
<g opacity="0.3">
<path d="M318.5 -59.5359C313.55 -62.394 307.45 -62.394 302.5 -59.5359L227 -15.9462C222.05 -13.088 219 -7.80599 219 -2.08974V85.0898C219 90.806 222.05 96.088 227 98.9462L302.5 142.536C307.45 145.394 313.55 145.394 318.5 142.536L394 98.9462C398.95 96.088 402 90.806 402 85.0897V-2.08974C402 -7.806 398.95 -13.088 394 -15.9462L318.5 -59.5359Z" stroke="#B969FF" stroke-width="2"/>
</g>
<g opacity="0.3">
<path d="M527.5 -59.5359C522.55 -62.394 516.45 -62.394 511.5 -59.5359L436 -15.9462C431.05 -13.088 428 -7.80599 428 -2.08974V85.0898C428 90.806 431.05 96.088 436 98.9462L511.5 142.536C516.45 145.394 522.55 145.394 527.5 142.536L603 98.9462C607.95 96.088 611 90.806 611 85.0897V-2.08974C611 -7.806 607.95 -13.088 603 -15.9462L527.5 -59.5359Z" stroke="#B969FF" stroke-width="2"/>
</g>
<g opacity="0.3">
<path d="M634.5 119.464C629.55 116.606 623.45 116.606 618.5 119.464L543 163.054C538.05 165.912 535 171.194 535 176.91V264.09C535 269.806 538.05 275.088 543 277.946L618.5 321.536C623.45 324.394 629.55 324.394 634.5 321.536L710 277.946C714.95 275.088 718 269.806 718 264.09V176.91C718 171.194 714.95 165.912 710 163.054L634.5 119.464Z" stroke="#B969FF" stroke-width="2"/>
</g>
<g opacity="0.3">
<path d="M530.5 298.464C525.55 295.606 519.45 295.606 514.5 298.464L439 342.054C434.05 344.912 431 350.194 431 355.91V443.09C431 448.806 434.05 454.088 439 456.946L514.5 500.536C519.45 503.394 525.55 503.394 530.5 500.536L606 456.946C610.95 454.088 614 448.806 614 443.09V355.91C614 350.194 610.95 344.912 606 342.054L530.5 298.464Z" stroke="#B969FF" stroke-width="2"/>
</g>
<g opacity="0.3">
<path d="M321.5 298.464C316.55 295.606 310.45 295.606 305.5 298.464L230 342.054C225.05 344.912 222 350.194 222 355.91V443.09C222 448.806 225.05 454.088 230 456.946L305.5 500.536C310.45 503.394 316.55 503.394 321.5 500.536L397 456.946C401.95 454.088 405 448.806 405 443.09V355.91C405 350.194 401.95 344.912 397 342.054L321.5 298.464Z" stroke="#B969FF" stroke-width="2"/>
</g>
<path d="M392.074 212.106C393.39 212.106 394.505 212.213 395.449 212.479C396.393 212.719 397.165 213.119 397.737 213.626C398.338 214.159 398.767 214.799 399.082 215.626C399.339 216.426 399.511 217.386 399.511 218.479V221.546C399.511 222.639 399.368 223.599 399.082 224.399C398.796 225.199 398.367 225.866 397.737 226.399C397.137 226.933 396.393 227.306 395.449 227.546C394.505 227.786 393.39 227.919 392.074 227.919H380.748C380.262 227.919 380.033 227.679 380.033 227.226V212.746C380.033 212.293 380.29 212.053 380.748 212.053H392.074V212.106ZM383.722 224.479C383.722 224.693 383.837 224.773 384.037 224.773H391.988C392.703 224.773 393.304 224.693 393.79 224.586C394.276 224.479 394.677 224.266 394.963 223.999C395.249 223.733 395.478 223.359 395.592 222.906C395.707 222.453 395.792 221.893 395.792 221.226V218.746C395.792 218.079 395.707 217.519 395.592 217.066C395.478 216.613 395.249 216.266 394.963 215.973C394.677 215.706 394.276 215.519 393.79 215.386C393.304 215.279 392.703 215.199 391.988 215.199H384.037C383.808 215.199 383.722 215.306 383.722 215.519V224.479Z" fill="#A652FF"/>
<path d="M409.264 212.106C409.435 212.106 409.521 212.213 409.607 212.399L413.525 224.559C413.554 224.666 413.611 224.719 413.726 224.719H413.84C413.954 224.719 414.012 224.666 414.04 224.559L417.959 213.413C418.13 212.906 418.388 212.559 418.674 212.373C418.96 212.186 419.332 212.106 419.761 212.106H422.163C422.707 212.106 423.107 212.213 423.393 212.399C423.679 212.613 423.908 212.933 424.079 213.413L428.084 224.559C428.112 224.666 428.198 224.719 428.284 224.719H428.427C428.541 224.719 428.599 224.666 428.627 224.559L432.46 212.399C432.488 212.293 432.546 212.186 432.603 212.159C432.689 212.106 432.746 212.106 432.832 212.106H436.121C436.235 212.106 436.321 212.159 436.35 212.266C436.378 212.373 436.378 212.506 436.321 212.639L431.688 226.186C431.459 226.879 431.201 227.306 430.915 227.573C430.658 227.813 430.286 227.919 429.8 227.919H426.968C426.482 227.919 426.139 227.813 425.853 227.546C425.595 227.306 425.338 226.853 425.081 226.186L421.305 215.466C421.276 215.359 421.219 215.306 421.105 215.306H420.99C420.876 215.306 420.819 215.359 420.79 215.466L416.958 226.186C416.7 226.853 416.471 227.306 416.185 227.546C415.928 227.786 415.556 227.919 415.07 227.919H412.296C412.038 227.919 411.781 227.893 411.581 227.839C411.38 227.786 411.18 227.706 411.037 227.599C410.865 227.466 410.751 227.306 410.608 227.066C410.494 226.826 410.351 226.559 410.265 226.213L405.832 212.666C405.774 212.506 405.774 212.399 405.803 212.293C405.832 212.186 405.917 212.159 406.032 212.159H409.264V212.106Z" fill="#A652FF"/>
<path d="M467.268 212.106C467.525 212.106 467.697 212.213 467.869 212.373L474.333 220.533L480.882 212.373C480.997 212.186 481.197 212.106 481.483 212.106H484.629C484.744 212.106 484.858 212.159 484.887 212.239C484.944 212.346 484.915 212.453 484.829 212.533L476.135 223.066V227.413C476.135 227.733 475.963 227.919 475.591 227.919H472.988C472.617 227.919 472.416 227.759 472.416 227.413V223.066L463.836 212.533C463.75 212.426 463.721 212.319 463.779 212.239C463.836 212.133 463.893 212.106 464.036 212.106H467.268Z" fill="#A652FF"/>
<path d="M373.083 227.413L365.046 213.813C364.645 213.119 364.245 212.693 363.816 212.426C363.387 212.186 362.872 212.079 362.271 212.079H360.841C360.326 212.079 359.869 212.186 359.497 212.426C359.096 212.666 358.696 213.119 358.324 213.813L350.344 227.386C350.258 227.546 350.23 227.653 350.287 227.759C350.344 227.866 350.459 227.893 350.659 227.893H353.834C354.091 227.893 354.263 227.786 354.406 227.599L361.413 215.439C361.499 215.333 361.556 215.279 361.671 215.279H361.814C361.928 215.279 362.014 215.333 362.071 215.439L369.164 227.599C369.279 227.813 369.422 227.893 369.736 227.893H372.825C373.025 227.893 373.14 227.839 373.168 227.759C373.197 227.679 373.168 227.546 373.083 227.413Z" fill="#A652FF"/>
<path d="M462.234 227.413L454.226 213.813C453.825 213.119 453.425 212.693 452.996 212.426C452.567 212.186 452.052 212.079 451.451 212.079H450.021C449.506 212.079 449.049 212.186 448.677 212.426C448.277 212.666 447.876 213.119 447.504 213.813L439.553 227.413C439.467 227.573 439.439 227.679 439.496 227.786C439.553 227.893 439.667 227.919 439.868 227.919H443.014C443.271 227.919 443.443 227.813 443.586 227.626L450.536 215.466C450.622 215.359 450.679 215.306 450.793 215.306H450.936C451.051 215.306 451.137 215.359 451.194 215.466L458.287 227.626C458.402 227.839 458.545 227.919 458.859 227.919H461.948C462.148 227.919 462.263 227.866 462.291 227.786C462.349 227.679 462.32 227.546 462.234 227.413Z" fill="#A652FF"/>
<defs>
<linearGradient id="paint0_linear" x1="-496.5" y1="1234.85" x2="893.253" y2="-79.4462" gradientUnits="userSpaceOnUse">
<stop stop-color="#B969FF"/>
<stop offset="1" stop-color="#B969FF" stop-opacity="0"/>
</linearGradient>
</defs>
</svg>
