<svg width="400" height="56" viewBox="0 0 400 56" fill="none" xmlns="http://www.w3.org/2000/svg">
<path d="M124.195 0.955093C127.573 0.884409 130.943 1.31834 134.212 2.24474C136.754 2.95762 139.101 4.32255 141.058 6.22514C142.887 8.11986 144.239 10.4937 144.982 13.1192C145.876 16.3283 146.301 19.6701 146.242 23.0225V33.674C146.302 37.029 145.877 40.3735 144.982 43.5852C144.238 46.2079 142.887 48.579 141.058 50.4713C139.101 52.3741 136.754 53.7391 134.212 54.4517C130.943 55.3765 127.573 55.8104 124.195 55.7413H90.5147C90.2179 55.788 89.9151 55.758 89.6309 55.6539C89.3466 55.5497 89.089 55.3743 88.8787 55.1417C88.6684 54.9092 88.5113 54.6261 88.4203 54.3154C88.3293 54.0047 88.3069 53.675 88.3548 53.3531V3.20004C88.3069 2.87812 88.3293 2.54843 88.4203 2.23769C88.5113 1.92696 88.6684 1.64392 88.8787 1.41139C89.089 1.17887 89.3466 1.00343 89.6309 0.899264C89.9151 0.795103 90.2179 0.765136 90.5147 0.811804L124.195 0.955093ZM99.3449 43.8797C99.3265 44.0182 99.3381 44.1594 99.3787 44.2922C99.4193 44.4249 99.4878 44.5456 99.5787 44.6445C99.6697 44.7434 99.7807 44.8179 99.9028 44.862C100.025 44.9062 100.155 44.9187 100.282 44.8987H123.91C125.704 44.9366 127.495 44.7252 129.24 44.2698C130.547 43.9316 131.751 43.2293 132.733 42.2318C133.672 41.1923 134.33 39.8926 134.636 38.4743C135.057 36.5775 135.252 34.6297 135.215 32.6789V24.0653C135.252 22.1145 135.058 20.1666 134.636 18.2698C134.331 16.8487 133.673 15.5461 132.733 14.5044C131.75 13.5081 130.547 12.806 129.24 12.4664C127.495 12.0105 125.704 11.7991 123.91 11.8375H100.282C99.6525 11.8375 99.3449 12.2037 99.3449 12.9361V43.8797Z" fill="white"/>
<path d="M175.273 0.955121C175.756 0.955121 176.093 1.29746 176.283 1.97413L187.955 44.1106C187.957 44.1888 187.975 44.2655 188.005 44.3361C188.036 44.4067 188.08 44.4698 188.135 44.5212C188.189 44.5727 188.252 44.6115 188.321 44.6353C188.389 44.6592 188.461 44.6676 188.533 44.6599H188.892C189.033 44.6612 189.17 44.6059 189.277 44.5047C189.383 44.4035 189.452 44.2633 189.47 44.1106L201.141 5.50076C201.453 4.0816 202.186 2.81388 203.228 1.89449C204.199 1.23653 205.328 0.909385 206.472 0.955121H213.603C214.892 0.858058 216.176 1.21541 217.264 1.97413C218.257 2.90145 218.973 4.12915 219.322 5.50076L231.278 44.1106C231.296 44.2633 231.365 44.4035 231.471 44.5047C231.578 44.6059 231.715 44.6612 231.857 44.6599H232.289C232.574 44.6599 232.765 44.4768 232.867 44.1106L244.245 1.97413C244.27 1.81389 244.324 1.66073 244.405 1.5239C244.485 1.38708 244.59 1.26943 244.714 1.17805C244.921 1.04956 245.156 0.981043 245.395 0.979027H255.118C255.275 0.958111 255.433 1.00345 255.56 1.1057C255.686 1.20794 255.772 1.35926 255.799 1.52832C255.869 1.95 255.834 2.38442 255.697 2.7861L241.844 49.8663C241.17 52.2174 240.426 53.8095 239.611 54.6428C238.687 55.4908 237.501 55.9236 236.294 55.8528H227.866C227.27 55.8905 226.673 55.7987 226.11 55.5828C225.546 55.3668 225.028 55.031 224.586 54.595C223.795 53.7618 223.039 52.1961 222.316 49.8981L211.004 12.6973C211.001 12.6199 210.984 12.5438 210.953 12.4738C210.923 12.4038 210.88 12.3412 210.826 12.2898C210.773 12.2385 210.711 12.1994 210.643 12.1751C210.575 12.1507 210.504 12.1415 210.433 12.148H210.147C210.075 12.1391 210.003 12.1466 209.934 12.17C209.865 12.1934 209.801 12.2322 209.747 12.2839C209.692 12.3356 209.648 12.3991 209.618 12.4702C209.587 12.5414 209.57 12.6187 209.569 12.6973L198.11 49.8663C197.392 52.1643 196.636 53.7299 195.84 54.5632C195.398 54.9992 194.88 55.335 194.317 55.5509C193.753 55.7669 193.156 55.8587 192.56 55.8209H184.352C183.638 55.8315 182.926 55.7514 182.229 55.5821C181.631 55.4281 181.076 55.1195 180.611 54.6826C180.082 54.1674 179.654 53.5421 179.351 52.8436C178.928 51.8839 178.578 50.8881 178.304 49.8663L165.052 2.79406C164.914 2.38149 164.876 1.93744 164.942 1.50442C164.975 1.34178 165.064 1.19892 165.19 1.10443C165.317 1.00995 165.471 0.970812 165.623 0.994916L175.273 0.955121Z" fill="white"/>
<path d="M347.594 0.955076C347.932 0.933911 348.27 1.0095 348.573 1.17431C348.876 1.33912 349.134 1.58741 349.322 1.89444L368.556 30.1712L387.937 1.89444C388.124 1.58683 388.382 1.33812 388.686 1.17324C388.989 1.00836 389.327 0.933101 389.665 0.955076H399.133C399.297 0.941009 399.461 0.982427 399.602 1.07363C399.744 1.16484 399.856 1.30138 399.923 1.46458C399.993 1.63827 400.016 1.82961 399.99 2.01679C399.964 2.20397 399.89 2.3795 399.777 2.52338L373.909 39.0236V54.0616C373.939 54.2951 373.919 54.5332 373.851 54.757C373.782 54.9808 373.666 55.1841 373.513 55.3509C373.36 55.5177 373.173 55.6434 372.967 55.7181C372.761 55.7927 372.542 55.8143 372.327 55.7811H364.522C363.416 55.7811 362.867 55.2079 362.867 54.0616V39.0236L337.292 2.52338C337.179 2.37962 337.103 2.20623 337.071 2.02048C337.039 1.83473 337.052 1.64308 337.109 1.46458C337.176 1.29276 337.294 1.14981 337.443 1.05774C337.593 0.965681 337.766 0.929607 337.936 0.955076H347.594Z" fill="white"/>
<path d="M67.7949 53.982L43.9475 6.87791C42.7467 4.52682 41.5264 2.93466 40.2865 2.10143C38.8796 1.24641 37.2847 0.825246 35.6737 0.883409H31.427C30.0014 0.849568 28.5982 1.27323 27.3927 2.10143C26.2407 2.90813 25.0643 4.50029 23.8635 6.87791L0.235769 53.9501C0.123206 54.1388 0.0486771 54.3513 0.0171262 54.5736C-0.0144247 54.7959 -0.00228102 55.0229 0.0527212 55.2398C0.177193 55.5821 0.543287 55.7493 1.17297 55.7493H10.5377C10.8748 55.773 11.2109 55.6892 11.5048 55.5082C11.7988 55.3272 12.0378 55.0568 12.1924 54.7303L33.0086 12.5938C33.0804 12.4297 33.1934 12.291 33.3347 12.1938C33.4759 12.0966 33.6395 12.0449 33.8066 12.0445H34.2387C34.4047 12.0454 34.5672 12.0975 34.7071 12.1948C34.8471 12.292 34.9588 12.4303 35.0294 12.5938L56.1384 54.7303C56.2836 55.0652 56.5206 55.3431 56.8169 55.5256C57.1133 55.7081 57.4543 55.7862 57.7932 55.7493H66.9382C67.5167 55.7493 67.8608 55.5821 67.9853 55.2398C68.0349 55.0272 68.0437 54.8057 68.0109 54.5893C67.9781 54.3728 67.9046 54.166 67.7949 53.982Z" fill="white"/>
<path d="M332.679 53.982L308.839 6.87791C307.638 4.52682 306.418 2.93466 305.178 2.10143C303.773 1.24706 302.181 0.825891 300.573 0.883405H296.319C294.893 0.850508 293.49 1.2741 292.284 2.10143C291.132 2.90812 289.956 4.50028 288.755 6.87791L265.142 53.982C265.031 54.1713 264.957 54.384 264.927 54.6063C264.897 54.8286 264.91 55.0553 264.966 55.2716C265.083 55.6139 265.457 55.7811 266.079 55.7811H275.393C275.73 55.8048 276.066 55.721 276.36 55.54C276.654 55.359 276.893 55.0887 277.047 54.7621L297.871 12.6256C297.942 12.4627 298.054 12.3249 298.194 12.2278C298.334 12.1307 298.496 12.0782 298.662 12.0763H299.094C299.259 12.0782 299.421 12.1307 299.561 12.2278C299.701 12.3249 299.813 12.4627 299.884 12.6256L320.993 54.7621C321.138 55.0971 321.375 55.375 321.672 55.5574C321.968 55.7399 322.309 55.818 322.648 55.7811H331.8C332.379 55.7811 332.723 55.6139 332.84 55.2716C332.898 55.0564 332.914 54.8303 332.886 54.6081C332.859 54.3858 332.788 54.1725 332.679 53.982Z" fill="white"/>
</svg>
