<svg width="1200" height="205" viewBox="0 0 1200 205" fill="none" xmlns="http://www.w3.org/2000/svg">
<path d="M179.3 204.042H228.862L137.609 0H90.9618L0 204.042H48.3963L66.4721 160.319H161.224L179.3 204.042ZM81.6324 124.466L113.994 46.3466L146.355 124.466H81.6324Z" fill="#F2F2F2"/>
<path d="M250.035 204.042H342.746C409.51 204.042 455.283 163.816 455.283 102.021C455.283 40.2254 409.51 0 342.746 0H250.035V204.042ZM297.266 165.274V38.7679H340.414C380.939 38.7679 407.469 62.9615 407.469 102.021C407.469 141.08 380.939 165.274 340.414 165.274H297.266Z" fill="#F2F2F2"/>
<path d="M747.332 0L699.811 144.578L653.163 0H609.432L561.327 143.412L515.263 0H466.284L533.339 204.042H583.776L630.132 65.8764L675.029 204.042H725.758L792.522 0H747.332Z" fill="#F2F2F2"/>
<path d="M964.533 204.042H1014.1L922.842 0H876.195L785.233 204.042H833.629L851.705 160.319H946.457L964.533 204.042ZM866.865 124.466L899.227 46.3466L931.588 124.466H866.865Z" fill="#F2F2F2"/>
<path d="M1200 0H1153.64L1099.13 90.6529L1044.61 0H994.461L1073.47 131.17V204.042H1120.7V131.753L1200 0Z" fill="#F2F2F2"/>
</svg>
