<svg width="14" height="18" viewBox="0 0 14 18" fill="none" xmlns="http://www.w3.org/2000/svg">
<path fill-rule="evenodd" clip-rule="evenodd" d="M7.56218 17.683C9.22433 16.3457 14 12.0721 14 7.11621C14 3.25022 10.866 0.116211 7 0.116211C3.13401 0.116211 0 3.25022 0 7.11621C0 12.0721 4.77567 16.3457 6.43782 17.683C6.77073 17.9509 7.22927 17.9509 7.56218 17.683ZM7 10.1162C8.65685 10.1162 10 8.77307 10 7.11621C10 5.45936 8.65685 4.11621 7 4.11621C5.34315 4.11621 4 5.45936 4 7.11621C4 8.77307 5.34315 10.1162 7 10.1162Z" fill="#A652FF"/>
</svg>
