<svg width="14" height="14" viewBox="0 0 14 14" fill="none" xmlns="http://www.w3.org/2000/svg">
<g clip-path="url(#clip0)">
<path opacity="0.3" fill-rule="evenodd" clip-rule="evenodd" d="M9.40683 10.6509C9.28202 11.0097 9.13992 11.3406 8.98375 11.6386C8.48241 12.5958 7.90617 13.1025 7.37452 13.2608V10.2055C8.06647 10.2441 8.75345 10.3926 9.40683 10.6509ZM10.0456 10.9445C9.44981 12.6169 8.48486 13.7715 7.37452 13.9815V14.0062C9.0401 13.9204 10.552 13.2529 11.711 12.2031C11.2125 11.6822 10.6489 11.2627 10.0456 10.9445ZM12.2059 11.7078C11.6253 11.1037 10.9655 10.6233 10.2589 10.2666C10.4991 9.39486 10.646 8.41465 10.674 7.37452H14.0062C13.9204 9.03856 13.2542 10.5492 12.2059 11.7078ZM9.61144 9.97908C8.89135 9.70104 8.13542 9.54284 7.37452 9.50441V7.37452H9.97376C9.94695 8.317 9.81759 9.19809 9.61144 9.97908ZM6.67449 9.50287V7.37452H4.04265C4.06944 8.317 4.19884 9.19809 4.40501 9.97908C5.13535 9.69712 5.9026 9.53836 6.67449 9.50287ZM4.60958 10.6509C4.73442 11.0097 4.87654 11.3406 5.03269 11.6386C5.54427 12.6154 6.13384 13.1231 6.67449 13.2701V10.2037C5.97149 10.2395 5.27322 10.3886 4.60958 10.6509ZM3.97082 10.9445C4.57247 12.6333 5.55042 13.794 6.67449 13.9874V14.0079C4.99591 13.9293 3.47175 13.2601 2.30508 12.2034C2.80369 11.6824 3.36738 11.2627 3.97082 10.9445ZM3.75756 10.2666C3.0508 10.6234 2.39083 11.1039 1.8101 11.7082C0.761677 10.5496 0.0952379 9.03877 0.00945127 7.37452H3.34239C3.37044 8.41465 3.5173 9.39486 3.75756 10.2666ZM4.04177 6.67449H6.67449V4.51352C5.9026 4.47803 5.13535 4.31929 4.40501 4.03732C4.19647 4.82728 4.06648 5.71971 4.04177 6.67449ZM4.60958 3.36549C5.27322 3.62781 5.97149 3.77689 6.67449 3.8127V0.746312C6.13384 0.893347 5.54427 1.40106 5.03269 2.37773C4.87654 2.67583 4.73442 3.0067 4.60958 3.36549ZM7.37452 6.67449V4.51196C8.13542 4.47354 8.89135 4.31533 9.61144 4.03732C9.81997 4.82728 9.94996 5.71971 9.97467 6.67449H7.37452ZM7.37452 3.81096C8.06647 3.77225 8.75345 3.62377 9.40683 3.36549C9.28202 3.0067 9.13992 2.67583 8.98375 2.37773C8.48241 1.42062 7.90617 0.913878 7.37452 0.75558V3.81096ZM10.6749 6.67449C10.6491 5.62222 10.5016 4.63064 10.2589 3.74978C10.9656 3.39301 11.6256 2.91249 12.2063 2.30822C13.2613 3.47449 13.9293 4.99741 14.0079 6.67449H10.6749ZM10.0456 3.07189C10.6491 2.75363 11.2128 2.33398 11.7114 1.81294C10.5523 0.762881 9.04031 0.0953164 7.37452 0.00945141V0.0348383C8.48486 0.244841 9.44981 1.39946 10.0456 3.07189ZM6.67449 0.0289605C5.55042 0.222354 4.57247 1.38314 3.97082 3.07189C3.36722 2.75355 2.8034 2.33378 2.3047 1.81257C3.47142 0.755727 4.99573 0.086427 6.67449 0.0078125V0.0289605ZM1.80976 2.30781C2.39057 2.91227 3.05066 3.39294 3.75756 3.74978C3.51479 4.63064 3.36739 5.62222 3.34155 6.67449H0.0078125C0.0863577 4.99722 0.754544 3.47412 1.80976 2.30781Z" fill="white"/>
</g>
<defs>
<clipPath id="clip0">
<rect width="14" height="14" fill="white"/>
</clipPath>
</defs>
</svg>
