<svg width="164" height="210" viewBox="0 0 164 210" fill="none" xmlns="http://www.w3.org/2000/svg">
<path fill-rule="evenodd" clip-rule="evenodd" d="M82.1891 209.62C89.1501 204.501 163.333 148.382 163.333 81.6667C163.333 36.5634 126.77 0 81.6667 0C36.5634 0 0 36.5634 0 81.6667C0 148.382 74.1833 204.501 81.1443 209.62C81.4885 209.873 81.8449 209.873 82.1891 209.62ZM81.6671 116.666C100.997 116.666 116.667 100.996 116.667 81.6655C116.667 62.3356 100.997 46.6655 81.6671 46.6655C62.3372 46.6655 46.6671 62.3356 46.6671 81.6655C46.6671 100.996 62.3372 116.666 81.6671 116.666Z" fill="white"/>
</svg>
